<svg viewBox="0 0 216 34" fill="none" xmlns="http://www.w3.org/2000/svg">
<g clip-path="url(#clip0)">
<path d="M21.2177 33.4484C18.9597 33.4484 16.8146 32.495 15.1964 30.7074L2.28825 16.248C0.70766 14.5001 -0.0826339 12.2359 0.0302654 9.81269C0.143165 7.42926 1.12163 5.20473 2.85275 3.61578L3.53016 2.9802C5.7505 0.954288 8.87404 0.278983 11.6589 1.27208L26.9379 6.75396C31.2657 8.30319 33.599 13.2687 32.1689 17.8369L29.1206 27.4501C28.1798 30.3896 25.9218 32.5744 23.0241 33.2497C22.422 33.3689 21.8198 33.4484 21.2177 33.4484ZM8.98693 3.21854C7.51924 3.21854 6.08919 3.77468 4.99782 4.8075L4.32045 5.40336C3.07855 6.55536 2.36352 8.14429 2.25062 9.89216C2.17535 11.64 2.73985 13.3084 3.90648 14.5796L16.8146 29.039C18.2823 30.6677 20.4274 31.3827 22.5349 30.906C24.6423 30.4294 26.2981 28.8404 26.9755 26.6953L30.0238 17.0822C31.0776 13.7454 29.3841 10.1305 26.2229 9.01823L10.9439 3.53634C10.3041 3.29799 9.66433 3.21854 8.98693 3.21854Z" fill="#212121"/>
</g>
<path d="M50.4624 8.96875C52.0416 8.96875 53.427 9.27741 54.6186 9.89474C55.8246 10.5121 56.7506 11.395 57.3966 12.5435C58.057 13.6777 58.3872 14.9985 58.3872 16.5059C58.3872 18.0133 58.057 19.3341 57.3966 20.4683C56.7506 21.5881 55.8246 22.4567 54.6186 23.074C53.427 23.6913 52.0416 24 50.4624 24H45.2079V8.96875H50.4624ZM50.3547 21.4374C51.934 21.4374 53.1543 21.0067 54.0157 20.1453C54.877 19.2839 55.3077 18.0708 55.3077 16.5059C55.3077 14.9411 54.877 13.7207 54.0157 12.845C53.1543 11.9549 51.934 11.5098 50.3547 11.5098H48.2228V21.4374H50.3547ZM62.1729 10.6485C61.6418 10.6485 61.1967 10.4834 60.8378 10.1532C60.4932 9.8086 60.321 9.38509 60.321 8.88261C60.321 8.38013 60.4932 7.96379 60.8378 7.63359C61.1967 7.28904 61.6418 7.11676 62.1729 7.11676C62.7041 7.11676 63.142 7.28904 63.4866 7.63359C63.8455 7.96379 64.0249 8.38013 64.0249 8.88261C64.0249 9.38509 63.8455 9.8086 63.4866 10.1532C63.142 10.4834 62.7041 10.6485 62.1729 10.6485ZM63.6588 12.0698V24H60.644V12.0698H63.6588ZM77.7279 17.7765C77.7279 18.2072 77.6992 18.5948 77.6418 18.9393H68.9202C68.992 19.8007 69.2935 20.4755 69.8247 20.9636C70.3559 21.4517 71.0091 21.6958 71.7843 21.6958C72.9041 21.6958 73.7009 21.2148 74.1747 20.253H77.4264C77.0819 21.4015 76.4215 22.349 75.4452 23.0955C74.469 23.8277 73.2702 24.1938 71.8489 24.1938C70.7004 24.1938 69.6668 23.9426 68.7479 23.4401C67.8435 22.9233 67.1328 22.1983 66.616 21.2651C66.1135 20.3319 65.8623 19.2552 65.8623 18.0349C65.8623 16.8002 66.1135 15.7163 66.616 14.7831C67.1185 13.85 67.8219 13.1321 68.7264 12.6297C69.6309 12.1272 70.6717 11.8759 71.8489 11.8759C72.9831 11.8759 73.9952 12.12 74.8853 12.6081C75.7898 13.0962 76.4861 13.7925 76.9742 14.697C77.4767 15.5871 77.7279 16.6136 77.7279 17.7765ZM74.6054 16.9151C74.591 16.1398 74.3111 15.5225 73.7655 15.0631C73.22 14.5893 72.5524 14.3524 71.7628 14.3524C71.0163 14.3524 70.3846 14.5821 69.8677 15.0415C69.3653 15.4866 69.0566 16.1111 68.9418 16.9151H74.6054ZM84.6016 11.8759C85.4917 11.8759 86.2741 12.0554 86.9488 12.4143C87.6236 12.7589 88.1548 13.2111 88.5424 13.771V12.0698H91.5788V24.0861C91.5788 25.1916 91.3563 26.175 90.9112 27.0364C90.4662 27.9121 89.7986 28.6013 88.9085 29.1037C88.0184 29.6206 86.9417 29.879 85.6783 29.879C83.9842 29.879 82.5916 29.4842 81.5005 28.6946C80.4238 27.905 79.8137 26.8282 79.6701 25.4644H82.6634C82.8213 26.0099 83.1587 26.4406 83.6756 26.7564C84.2067 27.0866 84.8456 27.2517 85.5922 27.2517C86.4679 27.2517 87.1785 26.9862 87.7241 26.455C88.2696 25.9381 88.5424 25.1485 88.5424 24.0861V22.2342C88.1548 22.7941 87.6164 23.2606 86.9273 23.6339C86.2525 24.0072 85.4773 24.1938 84.6016 24.1938C83.5966 24.1938 82.6778 23.9354 81.8451 23.4186C81.0124 22.9017 80.352 22.1767 79.8639 21.2436C79.3901 20.296 79.1533 19.2121 79.1533 17.9918C79.1533 16.7859 79.3901 15.7163 79.8639 14.7831C80.352 13.85 81.0053 13.1321 81.8236 12.6297C82.6562 12.1272 83.5822 11.8759 84.6016 11.8759ZM88.5424 18.0349C88.5424 17.3027 88.3988 16.6782 88.1117 16.1614C87.8246 15.6302 87.437 15.2282 86.9488 14.9554C86.4607 14.6683 85.9367 14.5247 85.3768 14.5247C84.8169 14.5247 84.3001 14.6611 83.8263 14.9339C83.3525 15.2066 82.9649 15.6086 82.6634 16.1398C82.3763 16.6567 82.2327 17.274 82.2327 17.9918C82.2327 18.7096 82.3763 19.3413 82.6634 19.8869C82.9649 20.4181 83.3525 20.8272 83.8263 21.1143C84.3144 21.4015 84.8313 21.545 85.3768 21.545C85.9367 21.545 86.4607 21.4087 86.9488 21.1359C87.437 20.8487 87.8246 20.4468 88.1117 19.9299C88.3988 19.3987 88.5424 18.7671 88.5424 18.0349ZM99.8209 24.1938C98.6724 24.1938 97.6387 23.9426 96.7199 23.4401C95.8011 22.9233 95.0761 22.1983 94.5449 21.2651C94.0281 20.3319 93.7696 19.2552 93.7696 18.0349C93.7696 16.8146 94.0352 15.7378 94.5664 14.8047C95.112 13.8715 95.8513 13.1537 96.7845 12.6512C97.7177 12.1344 98.7585 11.8759 99.907 11.8759C101.056 11.8759 102.096 12.1344 103.03 12.6512C103.963 13.1537 104.695 13.8715 105.226 14.8047C105.772 15.7378 106.044 16.8146 106.044 18.0349C106.044 19.2552 105.764 20.3319 105.205 21.2651C104.659 22.1983 103.912 22.9233 102.965 23.4401C102.032 23.9426 100.984 24.1938 99.8209 24.1938ZM99.8209 21.5666C100.366 21.5666 100.876 21.4374 101.35 21.1789C101.838 20.9062 102.226 20.5042 102.513 19.973C102.8 19.4418 102.943 18.7958 102.943 18.0349C102.943 16.9007 102.642 16.0321 102.039 15.4292C101.45 14.8118 100.725 14.5032 99.864 14.5032C99.0026 14.5032 98.2776 14.8118 97.689 15.4292C97.1147 16.0321 96.8276 16.9007 96.8276 18.0349C96.8276 19.169 97.1075 20.0448 97.6674 20.6621C98.2417 21.2651 98.9595 21.5666 99.8209 21.5666ZM123.853 13.491C123.509 12.8594 123.035 12.3784 122.432 12.0482C121.829 11.718 121.125 11.5529 120.321 11.5529C119.431 11.5529 118.642 11.7539 117.953 12.1559C117.264 12.5579 116.725 13.1321 116.338 13.8787C115.95 14.6252 115.756 15.4866 115.756 16.4628C115.756 17.4678 115.95 18.3435 116.338 19.0901C116.74 19.8366 117.292 20.4109 117.996 20.8129C118.699 21.2148 119.518 21.4158 120.451 21.4158C121.599 21.4158 122.54 21.1143 123.272 20.5114C124.004 19.894 124.485 19.0398 124.715 17.9487H119.546V15.6445H127.686V18.2718C127.485 19.3198 127.055 20.2888 126.394 21.1789C125.734 22.0691 124.88 22.7869 123.832 23.3324C122.798 23.8636 121.635 24.1292 120.343 24.1292C118.893 24.1292 117.579 23.8062 116.402 23.1601C115.239 22.4997 114.32 21.5881 113.646 20.4252C112.985 19.2624 112.655 17.9416 112.655 16.4628C112.655 14.9841 112.985 13.6633 113.646 12.5004C114.32 11.3232 115.239 10.4116 116.402 9.76553C117.579 9.10513 118.886 8.77494 120.321 8.77494C122.016 8.77494 123.487 9.19127 124.736 10.0239C125.985 10.8423 126.846 11.998 127.32 13.491H123.853ZM129.142 17.9918C129.142 16.7859 129.379 15.7163 129.852 14.7831C130.34 13.85 130.994 13.1321 131.812 12.6297C132.645 12.1272 133.571 11.8759 134.59 11.8759C135.48 11.8759 136.255 12.0554 136.916 12.4143C137.59 12.7732 138.129 13.2254 138.531 13.771V12.0698H141.567V24H138.531V22.2557C138.143 22.8156 137.605 23.2822 136.916 23.6554C136.241 24.0144 135.458 24.1938 134.568 24.1938C133.563 24.1938 132.645 23.9354 131.812 23.4186C130.994 22.9017 130.34 22.1767 129.852 21.2436C129.379 20.296 129.142 19.2121 129.142 17.9918ZM138.531 18.0349C138.531 17.3027 138.387 16.6782 138.1 16.1614C137.813 15.6302 137.425 15.2282 136.937 14.9554C136.449 14.6683 135.925 14.5247 135.365 14.5247C134.805 14.5247 134.288 14.6611 133.815 14.9339C133.341 15.2066 132.953 15.6086 132.652 16.1398C132.365 16.6567 132.221 17.274 132.221 17.9918C132.221 18.7096 132.365 19.3413 132.652 19.8869C132.953 20.4181 133.341 20.8272 133.815 21.1143C134.303 21.4015 134.82 21.545 135.365 21.545C135.925 21.545 136.449 21.4087 136.937 21.1359C137.425 20.8487 137.813 20.4468 138.1 19.9299C138.387 19.3987 138.531 18.7671 138.531 18.0349ZM147.527 8.06429V24H144.512V8.06429H147.527ZM153.52 8.06429V24H150.505V8.06429H153.52ZM161.796 24.1938C160.648 24.1938 159.614 23.9426 158.695 23.4401C157.777 22.9233 157.052 22.1983 156.52 21.2651C156.004 20.3319 155.745 19.2552 155.745 18.0349C155.745 16.8146 156.011 15.7378 156.542 14.8047C157.087 13.8715 157.827 13.1537 158.76 12.6512C159.693 12.1344 160.734 11.8759 161.883 11.8759C163.031 11.8759 164.072 12.1344 165.005 12.6512C165.938 13.1537 166.67 13.8715 167.202 14.8047C167.747 15.7378 168.02 16.8146 168.02 18.0349C168.02 19.2552 167.74 20.3319 167.18 21.2651C166.635 22.1983 165.888 22.9233 164.94 23.4401C164.007 23.9426 162.959 24.1938 161.796 24.1938ZM161.796 21.5666C162.342 21.5666 162.852 21.4374 163.325 21.1789C163.813 20.9062 164.201 20.5042 164.488 19.973C164.775 19.4418 164.919 18.7958 164.919 18.0349C164.919 16.9007 164.617 16.0321 164.014 15.4292C163.426 14.8118 162.701 14.5032 161.839 14.5032C160.978 14.5032 160.253 14.8118 159.664 15.4292C159.09 16.0321 158.803 16.9007 158.803 18.0349C158.803 19.169 159.083 20.0448 159.643 20.6621C160.217 21.2651 160.935 21.5666 161.796 21.5666ZM175.206 21.222L178.221 12.0698H181.43L177.015 24H173.354L168.961 12.0698H172.191L175.206 21.222ZM184.652 10.6485C184.121 10.6485 183.676 10.4834 183.317 10.1532C182.972 9.8086 182.8 9.38509 182.8 8.88261C182.8 8.38013 182.972 7.96379 183.317 7.63359C183.676 7.28904 184.121 7.11676 184.652 7.11676C185.183 7.11676 185.621 7.28904 185.965 7.63359C186.324 7.96379 186.504 8.38013 186.504 8.88261C186.504 9.38509 186.324 9.8086 185.965 10.1532C185.621 10.4834 185.183 10.6485 184.652 10.6485ZM186.138 12.0698V24H183.123V12.0698H186.138ZM188.341 18.0349C188.341 16.8002 188.592 15.7235 189.095 14.8047C189.597 13.8715 190.294 13.1537 191.184 12.6512C192.074 12.1344 193.093 11.8759 194.242 11.8759C195.72 11.8759 196.941 12.2492 197.903 12.9957C198.879 13.7279 199.532 14.7616 199.862 16.0967H196.61C196.438 15.5799 196.144 15.1779 195.728 14.8908C195.326 14.5893 194.823 14.4386 194.22 14.4386C193.359 14.4386 192.677 14.7544 192.174 15.3861C191.672 16.0034 191.421 16.8864 191.421 18.0349C191.421 19.169 191.672 20.052 192.174 20.6836C192.677 21.301 193.359 21.6096 194.22 21.6096C195.44 21.6096 196.237 21.0641 196.61 19.973H199.862C199.532 21.2651 198.879 22.2916 197.903 23.0525C196.926 23.8134 195.706 24.1938 194.242 24.1938C193.093 24.1938 192.074 23.9426 191.184 23.4401C190.294 22.9233 189.597 22.2054 189.095 21.2866C188.592 20.3534 188.341 19.2695 188.341 18.0349ZM208.79 11.8975C209.694 11.8975 210.498 12.0985 211.202 12.5004C211.905 12.8881 212.451 13.4695 212.838 14.2448C213.24 15.0057 213.441 15.9245 213.441 17.0012V24H210.426V17.4104C210.426 16.4628 210.189 15.7378 209.716 15.2354C209.242 14.7185 208.596 14.4601 207.778 14.4601C206.945 14.4601 206.285 14.7185 205.796 15.2354C205.323 15.7378 205.086 16.4628 205.086 17.4104V24H202.071V8.06429H205.086V13.5556C205.473 13.0388 205.99 12.6368 206.636 12.3497C207.282 12.0482 208 11.8975 208.79 11.8975Z" fill="#212121"/>
<defs>
<clipPath id="clip0">
<rect width="32.6284" height="32.6284" fill="white" transform="translate(0 0.652557)"/>
</clipPath>
</defs>
</svg>
